<?xml version="1.0" encoding="UTF-8"?>
<svg xmlns="http://www.w3.org/2000/svg" version="1.1" viewBox="0 0 100 100">
  <!-- Generator: Adobe Illustrator 30.1.0, SVG Export Plug-In . SVG Version: 2.1.1 Build 136)  -->
  <defs>
    <style>
      .st0 {
        fill: #e01919;
      }

      .st1 {
        fill: #fff;
      }

      .st2 {
        fill: #18b0e8;
      }

      .st3 {
        display: none;
      }
    </style>
  </defs>
  <g id="Layer_2" class="st3">
    <rect width="101.5" height="101.5"/>
  </g>
  <g id="Layer_1">
    <g>
      <polygon class="st0" points="38.8 37.4 46.3 37.4 46.3 62.8 53.7 62.8 53.7 37.4 61.2 37.4 61.2 31.1 38.8 31.1 38.8 37.4"/>
      <path class="st2" d="M31.8,79l1.6-1.6c12.1,7.2,26.8,5.9,37.6-3l1.6,1.5c-5.9,5-13.4,8-21.1,8.3v2.4c8.8-.4,16.8-3.9,23.2-9.7l-3-3.1,2-2,3,3c5.9-6.4,9.5-14.6,9.9-23.3h-4.2s0-2.8,0-2.8h4.2c-.3-8-3.3-15.5-8.4-21.7l.7-.7c5.3,6.3,8.3,14.1,8.7,22.4h1.5s0,2.8,0,2.8h-1.5c-.4,9-4,17.5-10.1,24l1,1.1-2,2-1.1-1c-6.7,6.1-14.9,9.6-23.9,10v1.5s-2.9,0-2.9,0v-1.5c-6.8-.3-13.3-2.4-19-6.1.2-.3.4-.5.6-.7,5.4,3.6,11.6,5.6,18.3,5.9v-2.4c-5.9-.3-11.6-2-16.7-5.2Z"/>
      <path class="st2" d="M22.6,80.1l1.6,1.3,2.3-2.3-1.5-1.3.7-.7,1.5,1.3,1.6-1.6-1.4-1.2,1.5-1.6,1.5,1.2,5-5.1-1.3-1,2-2c1.6,1.2,3.2,2.2,4.9,3l1.7,2.7,1.3-1.6c1.6.4,3,.7,4.7.8l-.3,2.8c-4.1-.3-7.9-1.5-11.3-3.7l-11.1,11.5c4,3,8.4,5.2,13.2,6.5,3,.9,6,1.3,9.2,1.4v4.9c-11-.4-21.3-4.7-29.3-12.2l3.5-3.4Z"/>
      <path class="st2" d="M21.9,74.7l-1.1-1.2-2.2,2.3,1,1.3-3.4,3.5c-3.4-3.7-6.1-7.9-8.1-12.5-2.3-5.2-3.6-10.8-3.8-16.6h4.9c.4,8.1,3.1,15.9,7.9,22.4l11.2-11.5c-1.9-3.3-3.1-7-3.4-10.9l2.9-.3c.1,1.4.3,2.5.6,3.8l-2.3,2.3c1.1,1,3,1.2,3.8,2.4l2.4,3.5-2,2.1-.9-1.2-8,8.3,1,1.3-.6.7Z"/>
      <path class="st2" d="M9.2,48.4h-4.9c.1-3.5.6-6.8,1.5-10.2,2-7.2,5.8-13.8,11-19.3l3.4,3.4c-4,4.3-7,9.2-8.9,14.7-1.2,3.7-2,7.3-2.2,11.4Z"/>
      <path class="st2" d="M90.5,71.1c-1.9,3.7-4.3,7-7.1,10l-3.4-3.5c6.6-7.1,10.5-16.3,10.9-26h4.9c-.2,6.9-2,13.4-5.2,19.5Z"/>
      <path class="st2" d="M51.6,95.7v-4.9c3.2,0,6.3-.6,9.4-1.5,6.2-1.8,11.8-5,16.5-9.4l3.5,3.5c-3.6,3.4-7.8,6.2-12.3,8.3-5.4,2.4-11.1,3.8-17.2,4.1Z"/>
      <path class="st2" d="M22.5,20.1l-3.4-3.5c2.3-2.1,4.6-3.9,7.2-5.5,6.7-4.2,14.2-6.5,22.1-6.8v4.9c-9.6.4-18.7,4.2-25.8,10.9Z"/>
      <path class="st2" d="M90.8,48.4c-.2-4-.9-7.9-2.3-11.6-1.7-4.7-4.1-9-7.4-12.9l3.5-3.4c3.6,4.2,6.3,8.8,8.3,13.8,1.7,4.5,2.6,9.2,2.8,14.1h-4.9Z"/>
      <path class="st2" d="M75,17.9c-6.7-5.3-14.8-8.4-23.3-8.7v-4.9c9.8.4,19.2,3.9,26.8,10.1l-3.4,3.5Z"/>
      <path class="st0" d="M71.7,29.5c-.2-1.2-.8-2-2-2.3l14.3-14.3-3.9-2.5,10.8-2.7-2.2,11-2.6-3.7-14.4,14.5Z"/>
      <path class="st2" d="M47.7,17.5c-7.1.5-13.7,3.3-19.1,8.1l-2.2-2.2c5.9-5.3,13.2-8.5,21.2-9v3.1Z"/>
      <path class="st2" d="M17.7,47.7h-3.1c.4-7,2.8-13.8,7.2-19.2l1.8-2.3,2.2,2.2c-4.8,5.4-7.6,12.1-8.2,19.2Z"/>
      <path class="st2" d="M76.5,73.3l-2.2-2.2c4.7-5.4,7.5-11.6,8.1-18.8h3.1c-.2,3.3-.9,6.4-2,9.5-1.6,4.2-3.8,8-6.9,11.5Z"/>
      <path class="st2" d="M51.5,17.5h-2.9s0-4.1,0-4.1c-8.7.4-16.8,3.8-23.1,9.6-.3-.2-.5-.4-.7-.6,6.5-6,14.8-9.6,23.7-9.9v-1.6c0,0,2.9,0,2.9,0v1.5c7.7.3,15.1,3,21.2,7.7-.2.3-.4.5-.6.7-5.9-4.6-13-7.1-20.5-7.5v4.1Z"/>
      <path class="st2" d="M82.3,47.7c-.5-6.6-2.9-12.7-7-17.9l2.2-2.2c4.7,5.7,7.4,12.7,7.9,20.1h-3.1Z"/>
      <path class="st2" d="M19.3,69.6c-.2.3-.4.4-.7.7-3.7-5.6-5.8-12.1-6.1-18.8h-1.5s0-2.8,0-2.8h1.5c.3-9,4-17.4,10-24l.7.6c-5.9,6.5-9.4,14.5-9.7,23.3h4.1s0,2.8,0,2.8h-4.2c.3,6.6,2.3,12.8,5.8,18.2Z"/>
      <path class="st2" d="M69.1,23.8c-4.9-3.6-10.7-5.8-16.8-6.3v-3.1c6.9.5,13.4,2.8,19,7.1l-2.2,2.3Z"/>
      <path class="st2" d="M22.4,66.6l-2.3,2.2c-3.3-5-5.1-10.6-5.5-16.5h3.1c.4,5.1,2,9.9,4.7,14.3Z"/>
      <path class="st2" d="M67.1,68.3c.6-1.6.8-3,.2-4.4,2.9-3.6,4.5-7.8,4.9-12.5l2.9.3c-.4,6.3-3.3,12.3-7.9,16.6Z"/>
      <path class="st2" d="M48.6,27.8c-4.6.3-8.8,2-12.4,4.9l-3.4-.9c4.3-4,9.7-6.4,15.5-6.8l.3,2.8Z"/>
      <path class="st2" d="M72.2,48.6c-.3-4.2-1.7-8-4-11.3l1.8-2.5c3,3.9,4.7,8.5,5.1,13.5l-2.9.3Z"/>
      <path class="st2" d="M51.7,75l-.3-2.8c4.1-.3,7.8-1.6,11.1-3.9l1.5,2.4c-3.7,2.5-7.8,4-12.4,4.3Z"/>
      <path class="st2" d="M27.9,48.6l-2.9-.3c.3-4.3,1.6-8.3,4-11.9l2.6,1.4c-2.1,3.3-3.4,6.8-3.7,10.8Z"/>
      <path class="st2" d="M61.4,31c-3.1-1.8-6.4-2.9-10-3.1l.3-2.9c4.4.3,8.5,1.7,12.1,4.2-.8.6-1.6,1.1-2.4,1.8Z"/>
      <path class="st0" d="M13.4,86.6c-.3.3-.5.6-.9.7l7.3-8,12.9-14c.3.7.7,1.2,1.5,1.4l-20.9,19.8Z"/>
      <path class="st2" d="M65.2,57.2c2.5-5.1,2.1-11-.8-15.8,0-.3.3-.5.5-.6,3.4,5.3,3.6,12,.7,17.4l-.4-1Z"/>
      <path class="st2" d="M45.7,67.1c-.2-.3-.2-.5-.3-.9,5,1.4,10,.4,14.3-2.5l.4.6c-4.2,3-9.4,4.1-14.4,2.8Z"/>
      <path class="st2" d="M33.8,54.5c-.3,0-.6,0-.8,0-1.3-4.8-.4-10,2.5-14.1.3.2.5.7.3.9-2.5,4-3.2,8.7-1.9,13.2Z"/>
      <path class="st2" d="M30.4,50.4l-5.4.5v-1.8s5.4.5,5.4.5c0,.2,0,.6,0,.8Z"/>
      <polygon class="st2" points="50.4 30.4 49.6 30.4 49.1 24.9 50.9 24.9 50.4 30.4"/>
      <polygon class="st2" points="75.1 50.9 69.6 50.4 69.6 49.6 75.1 49.1 75.1 50.9"/>
      <path class="st2" d="M50.9,75.1h-1.8s.5-5.5.5-5.5c.3,0,.5,0,.8,0l.5,5.5Z"/>
      <polygon class="st2" points="50.5 22.8 49.5 22.8 49.5 19.1 50.6 19.1 50.5 22.8"/>
      <polygon class="st2" points="36.2 26.5 34.4 23.3 35.3 22.8 37.1 25.9 36.2 26.5"/>
      <path class="st2" d="M63.8,26.5c-.3-.1-.6-.3-.9-.5l1.8-3.1c.3.2.6.3.9.5l-1.8,3.1Z"/>
      <polygon class="st2" points="77.3 35.7 74.2 37.4 73.7 36.5 76.7 34.8 77.3 35.7"/>
      <path class="st2" d="M25.8,37.4l-3-1.7c.1-.3.3-.6.5-.9l3,1.7-.5.9Z"/>
      <path class="st2" d="M23.4,65.1c-.2-.3-.4-.5-.5-.9l2.9-1.7c.2.2.4.5.5.9l-2.9,1.7Z"/>
      <polygon class="st2" points="50.5 80.5 49.5 80.5 49.5 77.2 50.5 77.2 50.5 80.5"/>
      <path class="st2" d="M76.7,65.1l-2.9-1.6.5-.9,3,1.6c-.1.3-.3.6-.5.9Z"/>
      <polygon class="st2" points="22.7 50.5 19.2 50.5 19.2 49.5 22.7 49.5 22.7 50.5"/>
      <polygon class="st2" points="80.9 50.5 77.3 50.5 77.3 49.5 80.8 49.5 80.9 50.5"/>
      <polygon class="st2" points="64.9 76.6 63.3 73.8 64.1 73.2 65.8 76.1 64.9 76.6"/>
      <path class="st2" d="M35.1,76.6l-.9-.5,1.6-2.8c.3.1.5.2.9.5l-1.6,2.9Z"/>
      <path class="st2" d="M41.6,22.6l-.6.2-.7-2.1c0-.2.5-.3.6-.2l.7,2.1Z"/>
      <path class="st2" d="M56.2,22h-.6c0-.1.5-2.4.5-2.4.2,0,.5,0,.6.1l-.5,2.2Z"/>
      <path class="st2" d="M61.7,23.9c-.2,0-.4-.2-.6-.3l.9-2c.2,0,.5.1.6.3l-.9,2Z"/>
      <path class="st2" d="M59,22.8c-.2,0-.4,0-.6-.2l.7-2.1c.2,0,.4.1.6.2l-.7,2.1Z"/>
      <path class="st2" d="M38.9,23.6c-.2.2-.4.3-.6.3l-.9-2.1c.1-.1.5-.3.6-.2l.9,2Z"/>
      <path class="st2" d="M53.3,21.4c0,.2-.5.1-.7,0l.3-2.3h.6c0,0-.2,2.2-.2,2.2Z"/>
      <path class="st2" d="M29.4,30.2l-1.5-1.5c0-.2.2-.4.4-.5l1.6,1.5c0,.2-.3.4-.5.4Z"/>
      <path class="st2" d="M47.4,21.5c-.1,0-.4,0-.6,0l-.2-2.2c.1-.1.5-.1.6,0l.2,2.2Z"/>
      <polygon class="st2" points="43.8 22.1 43.4 19.8 44 19.7 44.5 21.9 43.8 22.1"/>
      <path class="st2" d="M33.3,26.8l-1.3-1.8c.2-.1.4-.3.5-.3l1.2,1.8-.5.4Z"/>
      <path class="st2" d="M66.9,26.8c-.1.1-.6-.2-.5-.3l1.2-1.7c.2,0,.5.2.5.4l-1.2,1.7Z"/>
      <path class="st2" d="M31.2,28.5c-.5-.5-1-1.1-1.4-1.6.1-.2.3-.3.5-.4l1.4,1.6c0,.1-.4.5-.5.4Z"/>
      <path class="st2" d="M21.8,45.2l-2.1-.4c0-.1,0-.5.1-.6l2.1.4c0,.2,0,.5,0,.6Z"/>
      <path class="st2" d="M19.9,55.7c-.1,0-.2-.4-.2-.6l2.1-.4c.1,0,.2.5,0,.6l-1.9.4Z"/>
      <path class="st2" d="M79.6,58.3l-2-.6c-.1-.1,0-.5.1-.6l2.1.6c0,.1,0,.4-.1.6Z"/>
      <path class="st2" d="M72.4,32.2c-.2,0-.4-.3-.4-.5l1.6-1.3c.1,0,.3.3.4.5l-1.6,1.3Z"/>
      <path class="st2" d="M27.7,32.2l-1.6-1.3c0-.2.2-.5.4-.5l1.6,1.3c0,.1-.2.5-.4.5Z"/>
      <path class="st2" d="M22.4,42.8l-2-.6c-.1,0,0-.6.1-.6l2,.5c.1,0,0,.4-.1.6Z"/>
      <polygon class="st2" points="58.5 79.2 57.9 79.4 57.3 77.3 57.9 77.2 58.5 79.2"/>
      <path class="st2" d="M80.3,55.7l-2.1-.4c0-.1,0-.4,0-.6l2.1.4v.6Z"/>
      <path class="st2" d="M73.9,34.3c-.2-.1-.3-.4-.3-.5l1.7-1.1c.2,0,.4.3.4.5l-1.8,1.2Z"/>
      <path class="st2" d="M20.5,58.3c-.1,0-.3-.5-.2-.6l2.1-.6c0,.1.1.4.1.6l-2,.6Z"/>
      <path class="st2" d="M77.7,42.8c-.1,0-.3-.5-.1-.6l2-.5c.2,0,.3.6.1.6l-2,.5Z"/>
      <path class="st2" d="M76.4,38.9c-.1,0-.3-.3-.3-.5l2-.9c.1.2.2.4.3.6l-1.9.8Z"/>
      <path class="st2" d="M40,78.8l-.6-.2.7-1.9c0-.1.6,0,.6.2l-.7,1.9Z"/>
      <polygon class="st2" points="26.2 34.3 24.4 33.1 24.7 32.5 26.5 33.8 26.2 34.3"/>
      <path class="st2" d="M75.2,67.3l-1.8-1.2c0-.1.2-.4.3-.5l1.8,1.2-.3.5Z"/>
      <path class="st2" d="M23.7,38.9l-1.9-.9c0-.1,0-.5.2-.6l1.9.9-.2.6Z"/>
      <path class="st2" d="M78.3,45.2c-.1,0-.2-.5-.1-.6l2-.4c.2,0,.2.5.2.6l-2,.4Z"/>
      <path class="st2" d="M42.1,79.4c-.2,0-.4-.1-.6-.2l.6-2c.2,0,.5,0,.6.2l-.6,2.1Z"/>
      <path class="st2" d="M78.1,62.5l-1.9-.9c0-.1,0-.4.2-.6l2,.9-.2.6Z"/>
      <polygon class="st2" points="21.5 47.7 19.3 47.5 19.4 46.9 21.6 47.1 21.5 47.7"/>
      <path class="st2" d="M73.5,69.4l-1.6-1.3c0-.1.2-.4.3-.5l1.6,1.3c0,.2-.2.4-.4.5Z"/>
      <path class="st2" d="M21,60c-.1-.1-.2-.5-.1-.6l1.9-.7c.1,0,.3.5.2.6l-2,.7Z"/>
      <path class="st2" d="M69.7,73.4l-1.4-1.7c0-.1.3-.3.5-.4l1.4,1.6-.5.4Z"/>
      <polygon class="st2" points="67.5 75 66.3 73.2 66.7 72.9 68 74.6 67.5 75"/>
      <path class="st2" d="M21.6,52.8l-2.2.2c0-.1,0-.5,0-.6l2.1-.2v.6Z"/>
      <path class="st2" d="M60,78.8l-.7-2c.1-.1.4-.2.6-.3l.7,2-.6.2Z"/>
      <path class="st2" d="M77.3,41.2c-.2,0-.3-.5-.2-.6l2-.7.2.6-2,.7Z"/>
      <path class="st2" d="M22.1,62.4c-.2,0-.5-.5-.3-.6l1.9-.8.2.5-1.9.9Z"/>
      <path class="st2" d="M79,60l-2-.7c0-.2,0-.5.2-.6l1.9.7c.1,0,0,.5-.2.6Z"/>
      <path class="st2" d="M71.7,71.4l-1.5-1.5.4-.4,1.5,1.5c0,.1-.3.4-.5.4Z"/>
      <path class="st2" d="M80.6,53.1l-2.1-.2c-.1,0,0-.6,0-.6l2.1.2v.6Z"/>
      <path class="st2" d="M22.8,41.3l-2-.7c-.2,0,0-.6.1-.6.7.2,1.3.4,2,.7l-.2.6Z"/>
      <path class="st2" d="M44.8,80h-.6c0,0,.4-2.1.4-2.1,0-.1.5-.1.6,0l-.3,2Z"/>
      <path class="st2" d="M37.5,77.7c0,.1-.6-.1-.5-.3l.9-1.8c.2,0,.4.1.6.2l-.9,1.9Z"/>
      <path class="st2" d="M62.5,77.7l-.9-1.9.6-.2.9,1.9c0,.1-.5.3-.5.2Z"/>
      <polygon class="st2" points="80.7 47.5 78.5 47.7 78.4 47.1 80.6 46.9 80.7 47.5"/>
      <path class="st2" d="M55.9,79.9c-.2,0-.4.1-.6.2l-.4-2c0-.1.5-.2.6-.1l.4,2Z"/>
      <path class="st2" d="M47.5,80.3c-.2,0-.5,0-.6,0l.2-2c0-.2.6-.2.6,0l-.2,2Z"/>
      <path class="st2" d="M52.6,80.3l-.2-1.9c0-.1.5-.2.6-.1l.2,2c0,.2-.6.2-.6,0Z"/>
      <path class="st0" d="M25.4,35.7l-8.6,28.2h7.6l1.4-6h7.9l1.4,6h7.9l-8.6-28.2h-9ZM27.2,52.2l.5-2c.7-2.7,1.4-6.1,2-9h.2c.7,2.8,1.4,6.3,2.1,9l.5,2h-5.2Z"/>
      <polygon class="st0" points="74.2 57.7 74.2 35.7 66.7 35.7 66.7 63.9 84.9 63.9 84.9 57.7 74.2 57.7"/>
      <g>
        <path class="st2" d="M38.2,63.3c-.9.5-3.1,2.3-3.8,1.7s1.1-2.9,1.5-3.7l-7.4-4.1,1.4-1.4c.1-.1.5-.3.7-.3l8.3,1.1c1-1.4,1.9-2.8,3.1-4l5.8-5.9-2-2.1-.8.5c0,0-.2,0-.3,0s0-.3,0-.3l.5-.9c-.3-.3-.6-.7-.9-.9l-2.3-1.3-.8.6c0,0-.3,0-.3,0s0-.2,0-.3l.4-.8-3-1.7c-.4.3-.7.5-1.2.7,0-.5.2-.7.5-1.1l-8.4-4.6c.9-.9,2.3-1.9,3.7-1.5l14.8,3.9c.7-1.2,1.5-2.4,2.7-3.2.7.3,2.5,1.7,1.7,2.5l-1.4,1.4,4.7,1.3,5.7-5.8c1.5-1.5,3-2.8,4.9-3.7s4.4-2.1,4.4,0-2.2,5.7-3.9,7.5l-6.5,6.5,1.3,4.4c.6-.7,1.2-1.4,2-1.8.9.4,1.7,1.1,1.9,2-.7,1.2-1.9,2.1-3,2.7l4.2,14.4c.4,1.3-.7,2.6-1.4,3.5l-4.8-7.7-.8.5s-.2,0-.2,0c0,0,0-.2,0-.3l.6-1-1.8-3-.7.5c0,0-.3,0-.3,0s0-.3,0-.4l.5-.8-1-1.7c-.3-.5-.7-.9-1.1-1.3l-.8.5s-.2,0-.3,0,0-.3,0-.3l.5-.8-2.2-2-5.8,5.9c-1.2,1.2-2.5,2-3.8,3l1.7,8.1c0,.2-.1.6-.3.8l-1.3,1.5-4.6-7.1ZM66.9,34.8c1.2-.7.9-2.4.4-3s-2.3-1.1-3.2.2c1.1.2,2.7,0,2.8,1.7v1.2ZM48.9,45.6l.5-.5-3.7-3.7-11.8-5.6c0,0-.3,0-.3,0s-.2.3,0,.4l11.7,5.8,3.6,3.6ZM63.2,64.8c0,0,.4-.2.4-.3l-6-11.5-3.6-3.4c-.2.1-.4.4-.4.6l3.5,3.3,6.1,11.3ZM42.1,57.6c.7-.7,1.3-1.4,1.6-2.3-.7.2-1.3.7-1.8,1.2-2,2-3.9,4-5.6,6.5,2.1-1.6,3.9-3.5,5.8-5.4Z"/>
        <path class="st1" d="M42.1,57.6c-1.9,1.9-3.6,3.7-5.8,5.4,1.7-2.4,3.6-4.5,5.6-6.5s1.1-1,1.8-1.2c-.3.9-.9,1.6-1.6,2.3Z"/>
        <path class="st1" d="M63.2,64.8l-6.1-11.3-3.5-3.3c0-.2.2-.4.4-.6l3.6,3.4,6,11.5c0,.1-.3.3-.4.3Z"/>
        <path class="st1" d="M48.9,45.6l-3.6-3.6-11.7-5.8c-.2,0,0-.4,0-.4s.3,0,.3,0l11.8,5.6,3.7,3.7-.5.5Z"/>
        <path class="st1" d="M66.9,34.8v-1.2c-.2-1.7-1.7-1.5-2.9-1.7,1-1.3,2.7-.9,3.2-.2s.8,2.3-.4,3Z"/>
      </g>
    </g>
  </g>
</svg>